<svg xmlns="http://www.w3.org/2000/svg" viewBox="0 0 500 500">
    <path d="M249.7,83.3c-89.8,0-162.9,73-162.9,162.7v0.4c4.1-6.1,9.9-11.3,17.1-15.2c1.7-1,3.6-1.9,5.5-2.7c2-0.9,4.1-1.7,6.4-2.4
		c9.7-65.1,66.1-115.3,133.9-115.3c74.7,0,135.4,60.7,135.4,135.2c0,68.7-51.6,125.6-118.1,134.1c-1,3.6-2.4,7.1-4,10.4
		c-0.2,0.4-0.5,0.9-0.7,1.3c-2.3,4.1-4.9,7.6-7.9,10.7v6.1c87.7-2.4,158.3-74.5,158.3-162.6C412.6,156.3,339.5,83.3,249.7,83.3z
	 M317.9,246c0,7.6,6.1,13.7,13.8,13.7c7.6,0,13.7-6.1,13.7-13.7c0-52.7-42.9-95.6-95.7-95.6c-7.6,0-13.8,6.1-13.8,13.7
		c0,7.6,6.1,13.7,13.8,13.7C287.3,177.9,317.9,208.4,317.9,246z M235.5,297.4v15.8c0,5.4-4.4,9.9-9.9,9.9h-87.1h-16.1
		c-5.5,0-9.9-4.4-9.9-9.9v-24c0-4.1,2.5-7.7,6.1-9.1c1.2-0.5,2.4-0.7,3.7-0.7h84.7c-7.7-9.4-11.8-21.1-11.8-33.4c0-1.3,0-2.5,0.1-3.7
		c0-0.3,0-0.6,0.1-0.9c-6.5-0.5-13.5-0.7-21.3-0.7c-26,0-44.8,2.5-56.4,7.5c-1.2,0.5-2.4,1.1-3.5,1.7c-9.2,5.1-13.8,12.6-13.8,22.5
		v39v53.9c0,5.3,1.1,10.7,3.6,15.4c2.8,5.3,6.4,8.9,11,11v19.5c0,1.5,0.7,3,2,3.9c1.2,0.9,2.7,1.4,4.2,1.4h3.1c2.1,0,3.7-0.6,5.1-1.6
		c1.1-0.9,1.6-2.2,1.6-3.6v-14.3h57.8h27.9v8.4v5.9c0,1.4,0.6,2.8,1.7,3.7c1.3,1,2.9,1.6,4.7,1.6h3.4c1.6,0,3-0.5,4.2-1.4
		c1.2-0.9,2-2.4,2-3.9v-3.4v-16.1c4.4-2,8-5.5,10.8-10.6c0.1-0.1,0.2-0.3,0.2-0.4c2.5-4.7,3.6-10.1,3.6-15.4v-66.3c-0.2,0-0.5,0-0.8,0
		C242.9,298.8,239.1,298.3,235.5,297.4z M201.5,351.4c2.4-2.5,5.3-3.7,8.6-3.7c3.4,0,6.3,1.2,8.7,3.6c2.5,2.4,3.7,5.3,3.7,8.6
		c0,3.4-1.2,6.3-3.7,8.7c-2.5,2.5-5.4,3.7-8.7,3.7c-3.3,0-6.2-1.2-8.6-3.6c-2.4-2.4-3.6-5.3-3.6-8.6
		C197.9,356.8,199.1,353.8,201.5,351.4z M137.8,372.3c-3.3,0-6.3-1.2-8.7-3.6c-2.5-2.4-3.7-5.3-3.7-8.6c0-2.5,0.7-4.7,2-6.7
		c0.5-0.7,1-1.4,1.7-2c2.5-2.5,5.4-3.7,8.7-3.7c3.4,0,6.2,1.2,8.6,3.6c2.4,2.4,3.6,5.3,3.6,8.6c0,3.4-1.2,6.3-3.6,8.7
		c-0.6,0.6-1.2,1.1-1.9,1.6C142.6,371.6,140.4,372.3,137.8,372.3z M268.9,274.3c8.7-6.4,14.4-16.7,14.4-28.4
		c0-19.4-15.7-35.2-35.1-35.2c-10.8,0-20.4,4.9-26.9,12.5c-2.4,2.9-4.4,6.2-5.8,9.8c-1.3,3.3-2.1,6.8-2.4,10.5
		c-0.1,0.8-0.1,1.6-0.1,2.4c0,19.2,15.3,34.8,34.4,35.2c0.2,0,0.5,0,0.7,0c3.5,0,6.8-0.5,10-1.5
		C262.1,278.5,265.7,276.7,268.9,274.3z" fill="white" />
</svg>